<svg xmlns="http://www.w3.org/2000/svg" viewBox="0 0 512.001 512.001"><path d="M493.402 164.929a7.5 7.5 0 00-6.901-9.868c-.503-.015-5.153-.135-12.587-.005l8.344-36.157a7.5 7.5 0 00-8.995-8.995l-36.159 8.344c.133-7.485.01-12.133-.003-12.587a7.5 7.5 0 00-9.868-6.901c-2.634.878-60.349 20.31-92.136 46.385a80.93 80.93 0 00.549-9.387c0-41.376-31.515-104.881-32.856-107.564a7.501 7.501 0 00-11.858-2.098c-.33.312-3.704 3.512-8.903 8.898L262.36 3.525a7.5 7.5 0 00-12.72 0l-19.667 31.468c-5.165-5.349-8.538-8.551-8.904-8.897a7.503 7.503 0 00-11.858 2.098c-1.342 2.683-32.856 66.188-32.856 107.564 0 3.162.186 6.294.546 9.385-31.788-26.074-89.5-45.506-92.134-46.383a7.503 7.503 0 00-9.868 6.901c-.013.454-.136 5.102-.003 12.587l-36.159-8.344a7.5 7.5 0 00-8.995 8.995l8.344 36.159c-7.434-.13-12.084-.01-12.587.004a7.5 7.5 0 00-6.901 9.868c.949 2.846 23.57 70.035 52.827 99.292a81.22 81.22 0 002.727 2.597 472.003 472.003 0 00-41.132-10.156 7.5 7.5 0 00-8.074 10.91c.601 1.116 15.132 27.68 50.917 57.33 7.318 6.064 15.891 12.521 25.766 19.034-15.595.254-31.427 1.777-47.325 4.561a7.5 7.5 0 00-4.224 12.467c.762.828 19.074 20.459 53.946 36.06 21.33 9.543 51.846 18.719 90.343 18.717 13.448-.001 27.877-1.127 43.221-3.743l-13.063 91.441a7.502 7.502 0 007.425 8.561h48.097a7.5 7.5 0 007.425-8.561L274.411 412c15.344 2.616 29.77 3.742 43.221 3.742 38.492 0 69.015-9.175 90.343-18.717 34.872-15.601 53.184-35.232 53.946-36.06a7.5 7.5 0 00-4.224-12.467c-15.898-2.784-31.73-4.307-47.324-4.561 9.875-6.513 18.447-12.97 25.765-19.033 35.785-29.65 50.316-56.214 50.917-57.33a7.501 7.501 0 00-8.074-10.91 472.365 472.365 0 00-41.132 10.156 81.22 81.22 0 002.727-2.597c29.256-29.259 51.877-96.448 52.826-99.294zm-56.855-31.158l28.396-6.553-6.552 28.391c-7.095.377-15.159.977-23.759 1.916a432.474 432.474 0 001.915-23.754zM256 21.651l15.445 24.713a431.763 431.763 0 00-15.443 18.151 429.42 429.42 0 00-15.445-18.155L256 21.651zm-37.837 22.732c8.732 8.994 23.804 25.371 37.518 44.463a7.5 7.5 0 1012.183-8.751 341.96 341.96 0 00-2.432-3.338c10.879-13.805 21.58-25.348 28.406-32.377 8.643 18.994 26.807 62.369 26.807 91.378 0 16.85-6.45 32.682-17.914 44.643a7.489 7.489 0 00-3.86-3.498c2.022-6.547 2.789-13.684 2.282-21.381-.922-13.99-6.151-29.922-15.543-47.353a7.499 7.499 0 00-10.16-3.045 7.499 7.499 0 00-3.045 10.16c15.807 29.338 18.087 52.021 6.853 67.584l-16.898-27.037a7.5 7.5 0 00-12.72 0l-19.667 31.468c-5.165-5.349-8.538-8.551-8.904-8.897a7.493 7.493 0 00-11.801 2c-11.466-11.958-17.913-27.776-17.913-44.645 0-28.976 18.166-72.37 26.808-91.374zm67.448 216.093a7.5 7.5 0 10-13.205 7.115c13.118 24.348 16.984 44.211 11.493 59.038-4.129 11.149-13.979 19.915-29.282 26.066-35.008-.74-63.261-29.448-63.261-64.63 0-28.979 18.167-72.376 26.809-91.377 8.723 8.982 23.78 25.342 37.516 44.464a7.5 7.5 0 0012.183-8.751 330.263 330.263 0 00-2.432-3.338c10.88-13.805 21.58-25.347 28.407-32.377 8.643 18.994 26.807 62.368 26.807 91.378 0 21.548-10.607 40.653-26.863 52.406a49.962 49.962 0 004.182-8.632c7.055-19.045 2.898-43.055-12.354-71.362zM256 379.851c-2.803-3.459-6.581-7.867-11.385-12.968 3.721.535 7.519.827 11.385.827 3.866 0 7.665-.292 11.385-.827-4.804 5.101-8.582 9.509-11.385 12.968zm6.24 53.02h-12.48l3.427-23.987c.933-.214 1.873-.44 2.813-.665.939.225 1.879.451 2.813.665l3.427 23.987zm-21.683-234.205L256 173.958l15.445 24.713a432.515 432.515 0 00-15.443 18.151 428.118 428.118 0 00-15.445-18.156zM75.453 133.771a431.49 431.49 0 001.915 23.754 430.189 430.189 0 00-23.759-1.916l-6.552-28.391 28.396 6.553zm-39.078 36.275c12.534.186 34.772 1.108 57.969 4.911a7.499 7.499 0 008.615-6.188 7.502 7.502 0 00-6.188-8.615 333.143 333.143 0 00-4.08-.64c-2.069-17.453-2.664-33.18-2.808-42.978 19.549 7.326 63.08 25.166 83.57 45.656 12.209 12.21 18.934 28.444 18.934 45.711 0 3.535-.297 7.022-.85 10.445a49.99 49.99 0 00-3.169-9.165c-8.479-18.455-28.396-32.494-59.197-41.726a7.5 7.5 0 10-4.306 14.368c26.492 7.941 43.272 19.252 49.873 33.62 4.964 10.804 4.198 23.965-2.274 39.137-12.09 11.596-27.917 17.965-44.722 17.965-17.267 0-33.501-6.724-45.711-18.934-20.489-20.488-38.329-64.018-45.656-83.567zm144.651 144.875c-14.412-9.187-31.361-18.617-50.934-27.43 17.676-.509 34.37-6.733 47.938-17.821-1.06 6.412-1.675 12.619-1.675 18.395a79.277 79.277 0 004.671 26.856zm-70.202 68.71c-16.983-7.521-29.807-16.162-38.172-22.69 18.809-2.265 37.412-2.652 55.488-1.145.105.009.208.006.312.01 28.402 15.02 64.403 28.817 108.874 37.006-56.351 10.11-99.432-1.193-126.502-13.181zm-24.757-69.755c-17.721-14.593-29.993-28.497-37.679-38.461 71.134 17.228 120.604 47.214 150.324 70.226 17.812 13.791 30.694 26.668 39.062 36.006-73.945-14.037-122.941-44.083-151.707-67.771zM240.599 497l7.019-49.129h16.765L271.401 497h-30.802zm198.78-136.055c-8.224 6.423-20.797 14.9-37.531 22.387-27.185 12.162-70.476 23.653-127.172 13.48 44.47-8.189 80.47-21.986 108.872-37.006.104-.004.207-.001.312-.01 18.087-1.507 36.7-1.119 55.519 1.149zm24.234-85.53c-7.687 9.964-19.959 23.868-37.679 38.46-28.77 23.692-77.772 53.742-151.734 67.777 8.253-9.213 20.932-21.891 38.51-35.563 29.794-23.173 79.424-53.366 150.903-70.674zM333.97 269.67c13.568 11.088 30.262 17.312 47.938 17.821-19.573 8.813-36.522 18.242-50.934 27.43a79.257 79.257 0 004.671-26.856c0-5.775-.615-11.982-1.675-18.395zm96-16.054c-24.877 24.877-65.155 25.199-90.433.968-6.471-15.171-7.237-28.334-2.274-39.137 6.601-14.368 23.381-25.679 49.873-33.62a7.5 7.5 0 005.031-9.337 7.5 7.5 0 00-9.337-5.031c-30.801 9.232-50.718 23.271-59.197 41.726a49.99 49.99 0 00-3.169 9.165 65.433 65.433 0 01-.85-10.445c0-17.268 6.725-33.501 18.934-45.711 20.49-20.491 64.02-38.331 83.57-45.657-.143 9.798-.739 25.525-2.808 42.978-1.355.205-2.714.417-4.08.641a7.5 7.5 0 002.427 14.803c23.199-3.803 45.438-4.726 57.971-4.911-7.321 19.544-25.148 63.057-45.658 83.568z"/></svg>