<svg xmlns="http://www.w3.org/2000/svg" height="512pt" viewBox="0 0 512 512" width="512pt"><path d="M199.96 447.895c18.704 35.46 44.544 58.894 46.036 60.23A14.956 14.956 0 00256 511.949c3.578 0 7.16-1.273 10.008-3.824 1.492-1.336 27.324-24.77 46.027-60.23-22.012-8.758-41.039-20.774-56.035-32.153-15 11.38-34.023 23.395-56.04 32.153zm0 0M477.04 317.992a202.3 202.3 0 01-8.61 9.188c-29.473 29.468-68.586 50.543-116.262 62.636-25.32 6.422-48.781 9.153-66.457 10.25 23.441 15.664 55.234 30.743 90.777 30.743 72.414 0 129.278-62.579 131.664-65.243a15 15 0 000-20.007c-.78-.872-12.297-13.59-31.113-27.567zm0 0M159.836 389.82c-47.676-12.093-86.793-33.168-116.266-62.64a200.332 200.332 0 01-8.613-9.188c-18.812 13.977-30.328 26.7-31.11 27.567-5.097 5.695-5.097 14.316 0 20.011 2.387 2.664 59.25 65.239 131.66 65.239 35.548 0 67.337-15.079 90.782-30.743-17.676-1.097-41.137-3.828-66.453-10.246zm0 0M245.996 366.738A14.96 14.96 0 00256 370.566c3.578 0 7.156-1.277 10.008-3.828 3.68-3.293 90.133-81.851 90.133-181.457 0-99.601-86.454-178.16-90.133-181.457A14.966 14.966 0 00256 0a14.956 14.956 0 00-10.004 3.824c-3.684 3.297-90.137 81.856-90.137 181.457 0 99.602 86.457 178.164 90.137 181.457zm0 0M415.445 77.117c-7.273-25.183-15.101-41.664-15.597-42.687-3.309-6.895-11.274-10.192-18.489-7.66-1.07.378-18.254 6.488-41.199 19.152 9.93 15.094 18.344 30.453 25.133 45.863 17.144-6.656 34.2-11.367 50.152-14.668zm0 0M171.84 45.922c-22.942-12.664-40.125-18.774-41.2-19.152-7.214-2.536-15.18.765-18.488 7.656-.492 1.027-8.324 17.508-15.597 42.691 15.949 3.297 33.007 8.008 50.152 14.664 6.79-15.402 15.203-30.765 25.133-45.86zm0 0"/><path d="M386.137 185.281c0 26.426-5.223 53.543-15.532 80.59-8.074 21.195-19.289 42.426-33.335 63.11-10.711 15.773-21.547 28.964-30.5 38.957 41.3-5.34 98.914-20.438 140.449-61.97 70.43-70.429 64.847-187.113 64.574-192.046a14.998 14.998 0 00-14.148-14.149c-.676-.035-3.98-.203-9.348-.203-19.43 0-65.879 2.157-112.445 20.29 6.832 21.992 10.285 43.933 10.285 65.421zm0 0M205.234 367.941c-8.953-9.996-19.789-23.187-30.5-38.96-14.047-20.684-25.265-41.915-33.34-63.11-10.304-27.047-15.53-54.164-15.53-80.59 0-21.488 3.452-43.43 10.288-65.422C89.586 101.727 43.141 99.57 23.711 99.57c-5.375 0-8.68.164-9.356.203A14.998 14.998 0 00.207 113.922c-.273 4.933-5.855 121.617 64.574 192.047 41.54 41.535 99.153 56.629 140.453 61.972zm0 0"/></svg>