<?xml version="1.0" encoding="iso-8859-1"?>
<!-- Generator: Adobe Illustrator 19.0.0, SVG Export Plug-In . SVG Version: 6.00 Build 0)  -->
<svg version="1.1" id="Capa_1" xmlns="http://www.w3.org/2000/svg" xmlns:xlink="http://www.w3.org/1999/xlink" x="0px" y="0px"
	 viewBox="0 0 512.001 512.001" style="enable-background:new 0 0 512.001 512.001;" xml:space="preserve">
<g>
	<g>
		<path d="M493.402,164.929c0.75-2.251,0.391-4.725-0.969-6.669c-1.36-1.944-3.56-3.131-5.932-3.199
			c-0.503-0.015-5.153-0.135-12.587-0.005l8.344-36.157c0.581-2.52-0.176-5.161-2.005-6.99c-1.829-1.829-4.471-2.585-6.99-2.005
			l-36.159,8.344c0.133-7.485,0.01-12.133-0.003-12.587c-0.068-2.372-1.254-4.572-3.199-5.932c-1.944-1.36-4.419-1.718-6.669-0.969
			c-2.634,0.878-60.349,20.31-92.136,46.385c0.361-3.092,0.549-6.225,0.549-9.387c0-41.376-31.515-104.881-32.856-107.564
			c-1.061-2.123-3.064-3.618-5.401-4.031c-2.337-0.413-4.731,0.303-6.457,1.933c-0.33,0.312-3.704,3.512-8.903,8.898L262.36,3.525
			C260.989,1.332,258.586,0,256,0s-4.989,1.332-6.36,3.525l-19.667,31.468c-5.165-5.349-8.538-8.551-8.904-8.897
			c-1.725-1.629-4.115-2.347-6.457-1.933c-2.336,0.414-4.34,1.909-5.401,4.031c-1.342,2.683-32.856,66.188-32.856,107.564
			c0,3.162,0.186,6.294,0.546,9.385c-31.788-26.074-89.5-45.506-92.134-46.383c-2.251-0.749-4.724-0.391-6.669,0.969
			c-1.945,1.36-3.131,3.56-3.199,5.932c-0.013,0.454-0.136,5.102-0.003,12.587l-36.159-8.344c-2.519-0.58-5.161,0.176-6.99,2.005
			c-1.829,1.829-2.586,4.47-2.005,6.99l8.344,36.159c-7.434-0.13-12.084-0.01-12.587,0.004c-2.372,0.068-4.572,1.254-5.932,3.199
			c-1.36,1.945-1.719,4.418-0.969,6.669c0.949,2.846,23.57,70.035,52.827,99.292c0.891,0.891,1.802,1.754,2.727,2.597
			c-12.938-3.82-26.632-7.256-41.132-10.156c-2.846-0.57-5.771,0.557-7.499,2.893c-1.729,2.335-1.953,5.459-0.575,8.017
			c0.601,1.116,15.132,27.68,50.917,57.33c7.318,6.064,15.891,12.521,25.766,19.034c-15.595,0.254-31.427,1.777-47.325,4.561
			c-2.702,0.473-4.93,2.384-5.81,4.981s-0.271,5.469,1.586,7.486c0.762,0.828,19.074,20.459,53.946,36.06
			c21.33,9.543,51.846,18.719,90.343,18.717c13.448-0.001,27.877-1.127,43.221-3.743l-13.063,91.441
			c-0.307,2.152,0.334,4.332,1.759,5.975s3.492,2.586,5.666,2.586h48.097c2.174,0,4.241-0.943,5.666-2.586
			c1.424-1.643,2.066-3.822,1.759-5.975L274.411,412c15.344,2.616,29.77,3.742,43.221,3.742c38.492,0,69.015-9.175,90.343-18.717
			c34.872-15.601,53.184-35.232,53.946-36.06c1.858-2.018,2.466-4.889,1.586-7.486s-3.108-4.508-5.81-4.981
			c-15.898-2.784-31.73-4.307-47.324-4.561c9.875-6.513,18.447-12.97,25.765-19.033c35.785-29.65,50.316-56.214,50.917-57.33
			c1.377-2.558,1.153-5.682-0.575-8.017c-1.728-2.335-4.651-3.463-7.499-2.893c-14.5,2.9-28.194,6.337-41.132,10.156
			c0.925-0.843,1.836-1.706,2.727-2.597C469.832,234.964,492.453,167.775,493.402,164.929z M436.547,133.771l28.396-6.553
			l-6.552,28.391c-7.095,0.377-15.159,0.977-23.759,1.916C435.57,148.923,436.169,140.862,436.547,133.771z M256,21.651
			l15.445,24.713c-4.747,5.281-10.024,11.405-15.443,18.151c-5.416-6.745-10.695-12.872-15.445-18.155L256,21.651z M218.163,44.383
			c8.732,8.994,23.804,25.371,37.518,44.463c2.416,3.364,7.102,4.133,10.467,1.716c3.364-2.417,4.132-7.103,1.716-10.467
			c-0.807-1.124-1.619-2.234-2.432-3.338c10.879-13.805,21.58-25.348,28.406-32.377c8.643,18.994,26.807,62.369,26.807,91.378
			c0,16.85-6.45,32.682-17.914,44.643c-0.834-1.605-2.21-2.836-3.86-3.498c2.022-6.547,2.789-13.684,2.282-21.381
			c-0.922-13.99-6.151-29.922-15.543-47.353c-1.964-3.647-6.515-5.011-10.16-3.045c-3.647,1.964-5.01,6.513-3.045,10.16
			c15.807,29.338,18.087,52.021,6.853,67.584l-16.898-27.037c-1.371-2.193-3.774-3.525-6.36-3.525s-4.989,1.332-6.36,3.525
			l-19.667,31.468c-5.165-5.349-8.538-8.551-8.904-8.897c-1.725-1.629-4.118-2.347-6.457-1.933
			c-2.299,0.407-4.271,1.864-5.344,3.933c-11.466-11.958-17.913-27.776-17.913-44.645
			C191.355,106.781,209.521,63.387,218.163,44.383z M285.611,260.476c-1.964-3.646-6.513-5.01-10.16-3.045
			c-3.647,1.965-5.01,6.513-3.045,10.16c13.118,24.348,16.984,44.211,11.493,59.038c-4.129,11.149-13.979,19.915-29.282,26.066
			c-35.008-0.74-63.261-29.448-63.261-64.63c0-28.979,18.167-72.376,26.809-91.377c8.723,8.982,23.78,25.342,37.516,44.464
			c2.416,3.364,7.102,4.134,10.467,1.716c3.364-2.417,4.132-7.103,1.716-10.467c-0.807-1.124-1.619-2.235-2.432-3.338
			c10.88-13.805,21.58-25.347,28.407-32.377c8.643,18.994,26.807,62.368,26.807,91.378c0,21.548-10.607,40.653-26.863,52.406
			c1.665-2.737,3.064-5.613,4.182-8.632C305.02,312.793,300.863,288.783,285.611,260.476z M256,379.851
			c-2.803-3.459-6.581-7.867-11.385-12.968c3.721,0.535,7.519,0.827,11.385,0.827c3.866,0,7.665-0.292,11.385-0.827
			C262.581,371.984,258.803,376.392,256,379.851z M262.24,432.871h-12.48l3.427-23.987c0.933-0.214,1.873-0.44,2.813-0.665
			c0.939,0.225,1.879,0.451,2.813,0.665L262.24,432.871z M240.557,198.666L256,173.958l15.445,24.713
			c-4.747,5.281-10.023,11.405-15.443,18.151C250.586,210.076,245.308,203.949,240.557,198.666z M75.453,133.771
			c0.377,7.091,0.977,15.152,1.915,23.754c-8.599-0.939-16.664-1.539-23.759-1.916l-6.552-28.391L75.453,133.771z M36.375,170.046
			c12.534,0.186,34.772,1.108,57.969,4.911c4.089,0.672,7.944-2.1,8.615-6.188c0.67-4.087-2.101-7.944-6.188-8.615
			c-1.366-0.224-2.725-0.435-4.08-0.64c-2.069-17.453-2.664-33.18-2.808-42.978c19.549,7.326,63.08,25.166,83.57,45.656
			c12.209,12.21,18.934,28.444,18.934,45.711c0,3.535-0.297,7.022-0.85,10.445c-0.76-3.149-1.81-6.207-3.169-9.165
			c-8.479-18.455-28.396-32.494-59.197-41.726c-3.966-1.188-8.147,1.063-9.337,5.031c-1.189,3.968,1.063,8.148,5.031,9.337
			c26.492,7.941,43.272,19.252,49.873,33.62c4.964,10.804,4.198,23.965-2.274,39.137c-12.09,11.596-27.917,17.965-44.722,17.965
			c-17.267,0-33.501-6.724-45.711-18.934C61.542,233.125,43.702,189.595,36.375,170.046z M181.026,314.921
			c-14.412-9.187-31.361-18.617-50.934-27.43c17.676-0.509,34.37-6.733,47.938-17.821c-1.06,6.412-1.675,12.619-1.675,18.395
			C176.355,297.486,178.01,306.526,181.026,314.921z M110.824,383.631c-16.983-7.521-29.807-16.162-38.172-22.69
			c18.809-2.265,37.412-2.652,55.488-1.145c0.105,0.009,0.208,0.006,0.312,0.01c28.402,15.02,64.403,28.817,108.874,37.006
			C180.975,406.922,137.894,395.619,110.824,383.631z M86.067,313.876c-17.721-14.593-29.993-28.497-37.679-38.461
			c71.134,17.228,120.604,47.214,150.324,70.226c17.812,13.791,30.694,26.668,39.062,36.006
			C163.829,367.61,114.833,337.564,86.067,313.876z M240.599,497l7.019-49.129h16.765L271.401,497H240.599z M439.379,360.945
			c-8.224,6.423-20.797,14.9-37.531,22.387c-27.185,12.162-70.476,23.653-127.172,13.48c44.47-8.189,80.47-21.986,108.872-37.006
			c0.104-0.004,0.207-0.001,0.312-0.01C401.947,358.289,420.56,358.677,439.379,360.945z M463.613,275.415
			c-7.687,9.964-19.959,23.868-37.679,38.46c-28.77,23.692-77.772,53.742-151.734,67.777c8.253-9.213,20.932-21.891,38.51-35.563
			C342.504,322.916,392.134,292.723,463.613,275.415z M333.97,269.67c13.568,11.088,30.262,17.312,47.938,17.821
			c-19.573,8.813-36.522,18.242-50.934,27.43c3.017-8.396,4.671-17.435,4.671-26.856C335.645,282.29,335.03,276.083,333.97,269.67z
			 M429.97,253.616c-24.877,24.877-65.155,25.199-90.433,0.968c-6.471-15.171-7.237-28.334-2.274-39.137
			c6.601-14.368,23.381-25.679,49.873-33.62c3.968-1.189,6.22-5.37,5.031-9.337c-1.189-3.967-5.371-6.222-9.337-5.031
			c-30.801,9.232-50.718,23.271-59.197,41.726c-1.359,2.958-2.409,6.016-3.169,9.165c-0.553-3.422-0.85-6.91-0.85-10.445
			c0-17.268,6.725-33.501,18.934-45.711c20.49-20.491,64.02-38.331,83.57-45.657c-0.143,9.798-0.739,25.525-2.808,42.978
			c-1.355,0.205-2.714,0.417-4.08,0.641c-4.087,0.67-6.858,4.527-6.188,8.615c0.67,4.088,4.532,6.861,8.615,6.188
			c23.199-3.803,45.438-4.726,57.971-4.911C468.307,189.592,450.48,233.105,429.97,253.616z"/>
	</g>
</g>
<g>
</g>
<g>
</g>
<g>
</g>
<g>
</g>
<g>
</g>
<g>
</g>
<g>
</g>
<g>
</g>
<g>
</g>
<g>
</g>
<g>
</g>
<g>
</g>
<g>
</g>
<g>
</g>
<g>
</g>
</svg>
